<svg width="40" height="40" viewBox="0 0 40 40" fill="none" xmlns="http://www.w3.org/2000/svg">
<path d="M22.8283 20L29.4143 13.414C29.7854 13.0381 29.9928 12.5307 29.9911 12.0025C29.9894 11.4743 29.7788 10.9683 29.4053 10.5948C29.0319 10.2213 28.5258 10.0108 27.9976 10.0091C27.4694 10.0075 26.962 10.2148 26.5862 10.586L20.0002 17.1719L13.4142 10.586C13.038 10.2166 12.5311 10.0106 12.0039 10.013C11.4767 10.0154 10.9717 10.2259 10.5989 10.5987C10.2261 10.9715 10.0156 11.4765 10.0132 12.0037C10.0108 12.531 10.2167 13.0378 10.5862 13.414L17.172 20L10.5862 26.586C10.2167 26.9622 10.0108 27.469 10.0132 27.9962C10.0156 28.5235 10.2261 29.0284 10.5989 29.4012C10.9717 29.774 11.4767 29.9845 12.0039 29.9869C12.5311 29.9893 13.038 29.7834 13.4142 29.414L20.0002 22.8281L26.5862 29.4141C26.962 29.7852 27.4694 29.9926 27.9976 29.9909C28.5258 29.9892 29.0319 29.7787 29.4053 29.4052C29.7788 29.0317 29.9894 28.5256 29.991 27.9974C29.9927 27.4692 29.7853 26.9618 29.4142 26.586L22.8283 20Z" fill="#2F855A"/>
<path d="M34.1418 5.85838C30.3912 2.10779 25.3043 0.000732422 20.0002 0.000732422C14.6961 0.000732422 9.6092 2.10779 5.85862 5.85838C2.10803 9.60896 0.000976563 14.6958 0.000976562 20C0.000976563 25.3041 2.10803 30.391 5.85862 34.1416C9.6092 37.8922 14.6961 39.9992 20.0002 39.9992C25.3043 39.9992 30.3912 37.8922 34.1418 34.1416C37.8924 30.391 39.9995 25.3041 39.9995 20C39.9995 14.6958 37.8924 9.60896 34.1418 5.85838V5.85838ZM29.4142 26.586C29.6027 26.7711 29.7526 26.9916 29.8553 27.235C29.9581 27.4783 30.0116 27.7396 30.0128 28.0037C30.014 28.2679 29.9628 28.5296 29.8623 28.7739C29.7618 29.0181 29.6139 29.2401 29.4271 29.4268C29.2403 29.6136 29.0184 29.7615 28.7741 29.8621C28.5299 29.9626 28.2681 30.0137 28.004 30.0125C27.7398 30.0113 27.4786 29.9578 27.2352 29.8551C26.9919 29.7524 26.7713 29.6024 26.5862 29.414L20.0002 22.8281L13.4142 29.414C13.038 29.7834 12.5312 29.9893 12.004 29.9869C11.4767 29.9845 10.9718 29.774 10.599 29.4012C10.2262 29.0284 10.0157 28.5235 10.0133 27.9962C10.0109 27.469 10.2168 26.9621 10.5862 26.586L17.1721 20L10.5862 13.414C10.2168 13.0378 10.0109 12.531 10.0133 12.0037C10.0157 11.4765 10.2262 10.9715 10.599 10.5987C10.9718 10.2259 11.4767 10.0154 12.004 10.013C12.5312 10.0106 13.038 10.2166 13.4142 10.586L20.0002 17.1719L26.5862 10.5859C26.9621 10.2147 27.4695 10.0074 27.9977 10.009C28.5258 10.0107 29.0319 10.2213 29.4054 10.5948C29.7789 10.9683 29.9894 11.4744 29.9911 12.0026C29.9927 12.5308 29.7854 13.0381 29.4142 13.414L22.8283 20L29.4142 26.586Z" fill="#C6F6D5"/>
</svg>
