<svg width="5" height="11" viewBox="0 0 5 11" fill="none" xmlns="http://www.w3.org/2000/svg">
<path d="M0.608601 10.0751C0.488238 10.0751 0.370585 10.0307 0.270515 9.94754C0.170445 9.86439 0.0924511 9.74621 0.0463937 9.60795C0.000336212 9.46969 -0.0117173 9.31755 0.0117573 9.17077C0.0352319 9.02399 0.0931804 8.88917 0.178277 8.78333L3.19065 5.03753L0.178253 1.29175C0.0641189 1.14984 -5.72428e-07 0.957372 0 0.756686C5.72436e-07 0.555999 0.064121 0.363533 0.178256 0.221627C0.29239 0.079721 0.44719 -7.07488e-07 0.6086 0C0.77001 7.07498e-07 0.924809 0.0797236 1.03894 0.221631L4.48169 4.50249C4.53822 4.57274 4.58306 4.65616 4.61366 4.74796C4.64426 4.83977 4.66 4.93817 4.66 5.03755C4.66 5.13693 4.64426 5.23533 4.61366 5.32714C4.58306 5.41894 4.53822 5.50236 4.48169 5.57261L1.03894 9.85342C0.982497 9.92381 0.91542 9.97963 0.841568 10.0177C0.767715 10.0557 0.688543 10.0753 0.608601 10.0751Z" fill="#F2F4F5"/>
</svg>
