<svg width="32" height="32" viewBox="0 0 32 32" fill="none" xmlns="http://www.w3.org/2000/svg">
<path d="M8.46863 17.1312L14.8681 23.5307C15.169 23.8296 15.5758 23.9974 15.9999 23.9974C16.4239 23.9974 16.8308 23.8296 17.1316 23.5307L23.531 17.1312C23.8266 16.8303 23.9913 16.4248 23.9894 16.003C23.9875 15.5812 23.8191 15.1772 23.5208 14.879C23.2226 14.5807 22.8186 14.4123 22.3968 14.4104C21.975 14.4085 21.5696 14.5733 21.2686 14.8688L17.5998 18.5375V9.6C17.5998 9.17565 17.4313 8.76869 17.1312 8.46863C16.8311 8.16857 16.4242 8 15.9998 8C15.5755 8 15.1685 8.16857 14.8685 8.46863C14.5684 8.76869 14.3998 9.17565 14.3998 9.6V18.5375L10.731 14.8688C10.4301 14.5733 10.0246 14.4085 9.60283 14.4104C9.18105 14.4123 8.77708 14.5807 8.47883 14.879C8.18058 15.1772 8.01218 15.5812 8.01027 16.003C8.00836 16.4248 8.1731 16.8303 8.46863 17.1312V17.1312Z" fill="#2F855A"/>
<path d="M16 32C19.1645 32 22.2579 31.0616 24.8891 29.3035C27.5203 27.5454 29.5711 25.0466 30.7821 22.1229C31.9931 19.1993 32.3099 15.9823 31.6926 12.8786C31.0752 9.77486 29.5513 6.92394 27.3137 4.6863C25.0761 2.44866 22.2251 0.924806 19.1214 0.307443C16.0177 -0.309921 12.8007 0.00693254 9.87706 1.21793C6.95345 2.42894 4.45459 4.4797 2.69649 7.11088C0.938384 9.74207 0 12.8355 0 16C0.00471773 20.242 1.69194 24.3089 4.6915 27.3085C7.69106 30.3081 11.758 31.9953 16 32V32ZM8.4688 14.8688C8.61733 14.7202 8.79368 14.6023 8.98779 14.5219C9.18189 14.4415 9.38994 14.4001 9.60005 14.4001C9.81015 14.4001 10.0182 14.4415 10.2123 14.5219C10.4064 14.6023 10.5828 14.7202 10.7313 14.8688L14.4 18.5375V9.6C14.4 9.17566 14.5686 8.76869 14.8686 8.46863C15.1687 8.16858 15.5757 8.00001 16 8.00001C16.4243 8.00001 16.8313 8.16858 17.1314 8.46863C17.4314 8.76869 17.6 9.17566 17.6 9.6V18.5375L21.2688 14.8687C21.5695 14.5718 21.9754 14.4059 22.3979 14.4073C22.8205 14.4086 23.2254 14.5771 23.5241 14.8759C23.8229 15.1747 23.9914 15.5795 23.9927 16.0021C23.994 16.4246 23.8281 16.8305 23.5312 17.1312L17.1317 23.5307C16.8309 23.8296 16.424 23.9974 16 23.9974C15.5759 23.9974 15.169 23.8296 14.8682 23.5307L8.4688 17.1312C8.3202 16.9827 8.20233 16.8063 8.12191 16.6122C8.04148 16.4181 8.00009 16.2101 8.00009 16C8.00009 15.7899 8.04148 15.5819 8.12191 15.3878C8.20233 15.1937 8.3202 15.0173 8.4688 14.8688V14.8688Z" fill="#C6F6D5"/>
</svg>
